<svg xmlns="http://www.w3.org/2000/svg" data-name="Layer 1" viewBox="0 0 512 512"><defs><linearGradient id="a" x1="256" x2="256" y1="15.711" y2="485.916" gradientUnits="userSpaceOnUse"><stop offset="0" stop-color="#00efd1"/><stop offset="1" stop-color="#00acea"/></linearGradient></defs><path fill="url(#a)" d="M462.091,124.154c-17.8-27.816-56.361-39.395-108.6-32.6-2.689.35-5.4.756-8.133,1.2q-1.647-3.807-3.374-7.5C319.559,37.592,289.021,11.344,256,11.344s-63.559,26.248-85.987,73.908c-1.155,2.454-2.276,4.959-3.374,7.5-2.73-.442-5.444-.848-8.133-1.2-52.236-6.792-90.8,4.787-108.6,32.6s-12.141,67.685,15.92,112.263Q72,246.227,79.4,256q-7.377,9.759-13.571,19.583c-28.061,44.578-33.715,84.447-15.92,112.263,14.471,22.619,42.669,34.5,80.791,34.5a216.185,216.185,0,0,0,27.806-1.9c2.689-.349,5.4-.755,8.133-1.2,1.1,2.537,2.219,5.042,3.374,7.5,22.428,47.66,52.966,73.908,85.987,73.908s63.559-26.248,85.987-73.908q1.732-3.681,3.374-7.5c2.73.442,5.444.848,8.133,1.2a216.177,216.177,0,0,0,27.806,1.9c38.117,0,66.321-11.882,80.791-34.5,17.8-27.816,12.141-67.685-15.92-112.263Q440,265.773,432.6,256q7.377-9.759,13.571-19.583C474.232,191.839,479.886,151.97,462.091,124.154Zm-277.6-32.089C204.13,50.329,229.526,27.344,256,27.344s51.869,22.985,71.51,64.721q.878,1.865,1.73,3.768C305.658,101.04,280.919,109.422,256,120.58c-24.919-11.158-49.658-19.54-73.24-24.747Q183.614,93.934,184.489,92.065ZM359.367,256a489.442,489.442,0,0,1-3.049,54.912,489.4,489.4,0,0,1-44.613,32.161A484.76,484.76,0,0,1,256,373.84,484.666,484.666,0,0,1,200.3,343.074a489.611,489.611,0,0,1-44.614-32.162,496,496,0,0,1,0-109.824A489.611,489.611,0,0,1,200.3,168.926,484.666,484.666,0,0,1,256,138.16a484.76,484.76,0,0,1,55.7,30.767,489.4,489.4,0,0,1,44.613,32.161A489.442,489.442,0,0,1,359.367,256Zm14.445-39.959A372.229,372.229,0,0,1,412.232,256a372.229,372.229,0,0,1-38.42,39.959c1.026-13.088,1.555-26.439,1.555-39.959S374.838,229.129,373.812,216.041ZM353.148,333.707a356.224,356.224,0,0,1-17.705,67.427,350.148,350.148,0,0,1-60.214-18.857,506.888,506.888,0,0,0,45.1-25.726Q337.412,345.622,353.148,333.707Zm-116.377,48.57a350.184,350.184,0,0,1-60.215,18.857,356.3,356.3,0,0,1-17.706-67.427q15.707,11.876,32.822,22.844A506.5,506.5,0,0,0,236.771,382.277Zm-98.583-86.319A372.234,372.234,0,0,1,99.767,256a372.234,372.234,0,0,1,38.421-39.958c-1.027,13.087-1.556,26.438-1.556,39.958S137.161,282.871,138.188,295.958ZM158.85,178.293a356.3,356.3,0,0,1,17.706-67.427,350.184,350.184,0,0,1,60.215,18.857,506.5,506.5,0,0,0-45.1,25.726Q174.588,166.378,158.85,178.293Zm161.478-22.844a506.888,506.888,0,0,0-45.1-25.726,350.148,350.148,0,0,1,60.214-18.857,356.224,356.224,0,0,1,17.705,67.427Q337.443,166.418,320.328,155.449ZM79.369,227.893C54.8,188.856,49.12,155.077,63.388,132.776c11.4-17.817,34.777-27.146,67.049-27.146a202.5,202.5,0,0,1,26.006,1.787q2.044.267,4.107.573c-9.322,25.393-16.073,54.152-19.981,84.826a407.678,407.678,0,0,0-50.856,50.255Q84.159,235.495,79.369,227.893Zm77.074,176.69c-45.747,5.949-78.79-3.06-93.055-25.359s-8.591-56.08,15.981-95.117q4.782-7.595,10.344-15.178a407.678,407.678,0,0,0,50.856,50.255c3.908,30.674,10.659,59.433,19.981,84.826Q158.489,404.313,156.443,404.583ZM327.51,419.935c-19.641,41.736-45.036,64.721-71.51,64.721s-51.87-22.985-71.511-64.721q-.878-1.864-1.73-3.768c23.582-5.207,48.321-13.589,73.24-24.747,24.92,11.158,49.659,19.54,73.241,24.747Q328.385,418.066,327.51,419.935ZM432.631,284.107c24.572,39.037,30.249,72.816,15.981,95.117-11.4,17.817-34.778,27.148-67.049,27.146a202.325,202.325,0,0,1-26.006-1.787c-1.363-.177-2.733-.371-4.108-.573,9.322-25.393,16.073-54.152,19.981-84.826a407.619,407.619,0,0,0,50.857-50.255Q427.84,276.506,432.631,284.107Zm-10.344-41.036a407.619,407.619,0,0,0-50.857-50.255c-3.908-30.674-10.659-59.433-19.981-84.826,1.375-.2,2.745-.4,4.108-.573,45.742-5.948,78.789,3.059,93.055,25.359s8.591,56.08-15.981,95.117Q427.849,235.487,422.287,243.071Z"/><path fill="url(#a)" d="M256,177.314c-28.32,0-59,8.257-59,26.386V308.447C197,326.575,227.753,335,256.039,335h.575a136.825,136.825,0,0,0,24.8-2.36c21.3-4.088,33.583-12.959,33.583-24.194V203.7C315,185.571,284.321,177.314,256,177.314Zm.073,16c26.26,0,40.687,7.161,42.686,10.386-2,3.225-16.426,10.385-42.686,10.385s-40.687-7.16-42.686-10.385C215.386,200.475,229.813,193.314,256.073,193.314Zm42.927,45c-2,3.1-16.1,10.607-43,10.607s-41-7.507-43-10.607V222.52c12,5.125,27.625,7.565,43,7.565s31-2.44,43-7.565Zm-20.546,78.52a120.174,120.174,0,0,1-22.485,2c-26.854,0-40.969-7.481-42.969-10.592V292.19c12,5.125,27.625,7.565,43,7.565s31-2.44,43-7.565v16.046C298,309.925,292.011,314.231,278.454,316.833ZM299,273.163c-2,3.11-16.145,10.592-43,10.592s-41-7.482-43-10.592V257.355c12,5.125,27.625,7.565,43,7.565s31-2.44,43-7.565v15.808Z"/></svg>