<?xml version="1.0" encoding="utf-8"?>
<!-- Generator: Adobe Illustrator 23.0.3, SVG Export Plug-In . SVG Version: 6.00 Build 0)  -->
<svg version="1.1" id="Icons" xmlns="http://www.w3.org/2000/svg" xmlns:xlink="http://www.w3.org/1999/xlink" x="0px" y="0px"
	 viewBox="0 0 32 32" style="enable-background:new 0 0 32 32;" xml:space="preserve">
<style type="text/css">
	.st0{fill:none;stroke:#000000;stroke-width:2;stroke-linecap:round;stroke-linejoin:round;stroke-miterlimit:10;}
</style>
<path d="M29.6,12.7c-0.1-0.5-0.6-0.8-1.1-0.8c-1.2,0.2-2.4-0.4-3-1.5c-0.6-1-0.5-2.4,0.2-3.3c0.3-0.4,0.3-1-0.1-1.3
	C24,4.3,22.1,3.2,20,2.6c-0.5-0.1-1,0.1-1.2,0.6C18.3,4.3,17.2,5,16,5s-2.3-0.7-2.8-1.8C13,2.7,12.5,2.4,12,2.6
	C9.9,3.2,8,4.3,6.4,5.9C6,6.2,6,6.8,6.3,7.2c0.7,1,0.8,2.3,0.2,3.3c-0.6,1-1.8,1.6-3,1.5c-0.5-0.1-1,0.3-1.1,0.8
	C2.1,13.8,2,14.9,2,16s0.1,2.2,0.4,3.3C2.5,19.8,3,20.1,3.5,20c1.2-0.2,2.4,0.4,3,1.5c0.6,1,0.5,2.4-0.2,3.3c-0.3,0.4-0.3,1,0.1,1.3
	c1.6,1.5,3.6,2.7,5.7,3.3c0.5,0.1,1-0.1,1.2-0.6c0.5-1.1,1.6-1.8,2.8-1.8s2.3,0.7,2.8,1.8c0.2,0.4,0.5,0.6,0.9,0.6
	c0.1,0,0.2,0,0.3,0c2.1-0.6,4.1-1.8,5.7-3.3c0.4-0.4,0.4-0.9,0.1-1.3c-0.7-1-0.8-2.3-0.2-3.3c0.6-1,1.8-1.6,3-1.5
	c0.5,0.1,1-0.3,1.1-0.8c0.3-1.1,0.4-2.2,0.4-3.3S29.9,13.8,29.6,12.7z M11.7,18.3c0.4,0.4,0.4,1,0,1.4C11.5,19.9,11.3,20,11,20
	s-0.5-0.1-0.7-0.3l-3-3c-0.4-0.4-0.4-1,0-1.4l3-3c0.4-0.4,1-0.4,1.4,0s0.4,1,0,1.4L9.4,16L11.7,18.3z M18.9,12.4l-4,8
	C14.7,20.8,14.4,21,14,21c-0.2,0-0.3,0-0.4-0.1c-0.5-0.2-0.7-0.8-0.4-1.3l4-8c0.2-0.5,0.8-0.7,1.3-0.4C18.9,11.4,19.1,12,18.9,12.4z
	 M24.7,16.7l-3,3C21.5,19.9,21.3,20,21,20s-0.5-0.1-0.7-0.3c-0.4-0.4-0.4-1,0-1.4l2.3-2.3l-2.3-2.3c-0.4-0.4-0.4-1,0-1.4
	s1-0.4,1.4,0l3,3C25.1,15.7,25.1,16.3,24.7,16.7z"/>
</svg>
