<svg xmlns="http://www.w3.org/2000/svg" data-name="Layer 1" viewBox="0 0 68 68"><path d="M57 12.81a.5.5 0 0 0 0-.13.78.78 0 0 0-.07-.16.42.42 0 0 0-.09-.14l-.07-.09c-2.32-3-2.3-5.71.07-8.67a1 1 0 0 0 .12-1A1 1 0 0 0 56 2H17a6 6 0 0 0-6 6v52a6 6 0 0 0 6 6h39a1 1 0 0 0 1-1V13a1.1 1.1 0 0 0 0-.19zM17 4h37.12a7.76 7.76 0 0 0 0 8H17a4 4 0 0 1 0-8zm2 60V14h36v50z"/><path d="M17 9h33a1 1 0 0 0 0-2H17a1 1 0 0 0 0 2zM49.12 25H24.88A3.88 3.88 0 0 0 21 28.88v14.24A3.88 3.88 0 0 0 24.88 47h24.24A3.88 3.88 0 0 0 53 43.12V28.88A3.88 3.88 0 0 0 49.12 25zM30 41.3h-5V29.08h1.16V40H30zm6.9 0l-1-3.84h-3.14l-.93 3.84h-1.21l3.06-12.22h1.4l3.07 12.22zm9.46 0h-1.2L44 34.94c-.28-1.56-.47-2.76-.59-4a53.08 53.08 0 0 1-.69 4l-1.28 6.36h-1.22l-2.28-12.22h1.23l1.07 6.18c.26 1.53.5 3.05.66 4.23.15-1.22.43-2.67.74-4.24l1.2-6.17h1.21l1.09 6.2c.26 1.45.5 2.9.63 4.19.18-1.34.44-2.7.72-4.22l1.18-6.17h1.19z"/><path d="M34.36 30.48c-.13.72-.28 1.47-.45 2.21L33 36.22h2.71l-.88-3.51c-.2-.8-.34-1.52-.47-2.23z"/></svg>