<svg xmlns="http://www.w3.org/2000/svg" width="48" height="48" viewBox="0 0 48 48"><g transform="translate(0 -1004.362)"><circle cx="24" cy="1028.362" r="24" fill="#424242" fill-rule="evenodd"/><g transform="translate(305.5 -457.5)"><path fill="none" stroke="#105286" stroke-linecap="round" stroke-linejoin="round" d="M-293.5 1492.8622l0-3 10 0 0 3M-288.5 1489.8551l0-3M-288.50083 1482.8622l0-3 15.00166 0 0 3M-281 1479.8551l0-3M-273.5017 1486.8622l0 3 3.00165 0 0 3"/><rect width="4" height="4" x="-290.5" y="1482.862" fill="#f9b536" rx="2" ry="2"/><rect width="4" height="4" x="-275.5" y="1482.862" fill="#f9b536" rx="2" ry="2"/><rect width="4" height="4" x="-295.5" y="1492.862" fill="#ee7581" rx="2" ry="2"/><rect width="4" height="4" x="-285.5" y="1492.862" fill="#ee7581" rx="2" ry="2"/><rect width="4" height="4" x="-272.5" y="1492.862" fill="#ee7581" rx="2" ry="2"/><rect width="4" height="4" x="-283" y="1472.862" fill="#2dbca4" rx="2" ry="2"/></g></g></svg>