<?xml version="1.0" encoding="UTF-8"?>
<svg xmlns="http://www.w3.org/2000/svg" xmlns:xlink="http://www.w3.org/1999/xlink" width="552.28pt" height="143.56pt" viewBox="0 0 552.28 143.56" version="1.1">
<defs>
<clipPath id="clip1">
  <path d="M 0 41 L 227 41 L 227 143.558594 L 0 143.558594 Z M 0 41 "/>
</clipPath>
<clipPath id="clip2">
  <path d="M 506 39 L 552.28125 39 L 552.28125 107 L 506 107 Z M 506 39 "/>
</clipPath>
</defs>
<g id="surface1">
<g clip-path="url(#clip1)" clip-rule="nonzero">
<path style=" stroke:none;fill-rule:nonzero;fill:rgb(19.215393%,58.430481%,71.763611%);fill-opacity:1;" d="M 124.6875 138.519531 C 58.609375 138.519531 5.039063 108.605469 5.039063 71.703125 C 5.039063 60.890625 9.667969 50.6875 17.832031 41.648438 C 6.535156 51.851563 0 63.867188 0 76.742188 C 0 113.644531 53.570313 143.558594 119.652344 143.558594 C 166.367188 143.558594 206.804688 128.597656 226.507813 106.796875 C 205.421875 125.832031 167.714844 138.519531 124.6875 138.519531 "/>
</g>
<path style=" stroke:none;fill-rule:nonzero;fill:rgb(19.215393%,58.430481%,71.763611%);fill-opacity:1;" d="M 154.59375 79.992188 C 154.59375 84.578125 151.257813 87.914063 147.296875 87.914063 C 143.753906 87.914063 141.464844 85.621094 141.464844 81.867188 C 141.464844 77.492188 144.589844 73.738281 148.964844 73.738281 C 152.507813 73.738281 154.59375 76.242188 154.59375 79.992188 "/>
<path style=" stroke:none;fill-rule:nonzero;fill:rgb(19.215393%,58.430481%,71.763611%);fill-opacity:1;" d="M 234.632813 96.40625 L 223.339844 103.003906 L 229.011719 103.730469 L 231.1875 109.019531 L 234.632813 96.40625 "/>
<path style=" stroke:none;fill-rule:nonzero;fill:rgb(0%,35.293579%,61.175537%);fill-opacity:1;" d="M 0.289063 80.503906 C 0.289063 77.835938 2.230469 74.683594 4.898438 74.683594 C 5.867188 74.683594 6.714844 75.410156 7.5625 76.378906 C 10.714844 79.773438 13.382813 81.835938 16.777344 81.835938 C 19.324219 81.835938 21.628906 80.015625 21.628906 77.472656 C 21.628906 73.46875 17.867188 69.226563 15.566406 66.316406 C 12.171875 61.953125 10.472656 57.832031 10.472656 54.800781 C 10.472656 49.707031 13.140625 45.585938 17.503906 41.828125 C 20.902344 38.917969 25.265625 37.222656 28.414063 37.222656 C 33.992188 37.222656 38.113281 41.34375 38.113281 45.585938 C 38.113281 48.859375 35.449219 50.679688 34.234375 50.679688 C 33.144531 50.679688 32.296875 50.195313 31.570313 49.222656 C 28.171875 45.34375 26.234375 44.011719 23.082031 44.011719 C 20.414063 44.011719 18.960938 46.070313 18.960938 47.769531 C 18.960938 51.769531 22.960938 55.285156 25.144531 58.195313 C 28.660156 62.921875 30.597656 66.316406 30.355469 71.046875 C 30.355469 75.167969 28.171875 79.773438 23.566406 83.53125 C 19.929688 86.566406 15.082031 88.382813 9.988281 88.382813 C 4.898438 88.382813 0.289063 84.746094 0.289063 80.503906 "/>
<path style=" stroke:none;fill-rule:nonzero;fill:rgb(0%,35.293579%,61.175537%);fill-opacity:1;" d="M 60.328125 76.867188 C 64.695313 70.5625 70.511719 56.011719 70.511719 48.132813 C 70.511719 44.859375 70.027344 41.585938 66.632813 41.585938 C 64.453125 41.585938 61.90625 42.917969 58.753906 46.921875 C 53.054688 54.316406 46.753906 68.742188 46.753906 77.714844 C 46.753906 81.351563 48.328125 84.015625 51.117188 84.015625 C 54.023438 84.015625 56.691406 82.078125 60.328125 76.867188 Z M 48.328125 45.34375 C 55.234375 38.796875 61.296875 37.222656 66.753906 37.222656 C 77.542969 37.222656 81.910156 44.617188 81.664063 53.710938 C 81.664063 61.226563 77.90625 72.257813 69.785156 80.015625 C 62.753906 86.929688 55.964844 88.382813 50.628906 88.382813 C 40.445313 88.382813 35.355469 81.351563 35.59375 72.5 C 35.839844 63.652344 40.808594 52.132813 48.328125 45.34375 "/>
<path style=" stroke:none;fill-rule:nonzero;fill:rgb(0%,35.293579%,61.175537%);fill-opacity:1;" d="M 106.214844 44.253906 C 102.089844 56.375 96.515625 78.441406 92.757813 90.324219 C 89.726563 99.78125 86.453125 107.054688 83.421875 110.933594 C 80.875 114.207031 74.449219 119.296875 66.933594 119.296875 C 61.113281 119.296875 56.75 115.417969 56.75 111.175781 C 56.75 107.902344 58.929688 105.476563 61.355469 105.476563 C 63.054688 105.476563 64.144531 106.328125 65.113281 107.902344 C 67.417969 111.539063 70.085938 113.960938 72.144531 113.960938 C 73.964844 113.960938 75.664063 112.023438 78.085938 103.660156 C 82.207031 89.109375 88.027344 65.589844 94.089844 44.253906 L 83.300781 44.253906 C 82.085938 42.558594 83.058594 39.644531 84.753906 38.917969 L 95.546875 38.917969 C 98.332031 29.582031 101 21.21875 105.972656 14.066406 C 112.03125 5.214844 119.671875 0.00390625 129.128906 0.00390625 C 136.644531 0.00390625 141.253906 4.367188 141.253906 9.335938 C 141.253906 14.429688 137.371094 17.582031 134.703125 17.582031 C 133.007813 17.582031 132.28125 16.851563 132.035156 15.15625 C 131.066406 6.910156 127.550781 4.367188 125.125 4.367188 C 122.460938 4.367188 119.550781 7.398438 117.003906 12.488281 C 113 20.488281 110.335938 29.703125 107.667969 38.917969 L 122.09375 38.917969 C 123.066406 40.375 122.578125 43.28125 120.640625 44.253906 L 106.214844 44.253906 "/>
<path style=" stroke:none;fill-rule:nonzero;fill:rgb(0%,35.293579%,61.175537%);fill-opacity:1;" d="M 132.277344 44.980469 L 121.367188 76.378906 C 120.636719 78.320313 120.878906 79.289063 122.09375 79.289063 C 124.03125 79.289063 131.0625 73.957031 135.429688 69.105469 C 136.882813 69.347656 137.609375 70.078125 137.367188 71.773438 C 132.035156 79.773438 120.152344 88.382813 112.394531 88.382813 C 109.96875 88.382813 108.03125 86.199219 108.03125 84.261719 C 108.03125 82.5625 108.390625 80.867188 109.484375 77.59375 L 120.636719 44.253906 L 111.425781 43.957031 C 110.695313 42.867188 111.425781 41.828125 112.636719 41.101563 L 122.820313 39.160156 L 130.578125 27.402344 C 131.308594 26.914063 132.277344 26.796875 133.488281 26.796875 C 135.183594 26.796875 136.882813 27.402344 137.367188 28.371094 L 133.972656 39.644531 L 146.097656 39.644531 C 147.550781 41.101563 146.582031 44.253906 145.125 44.980469 L 132.277344 44.980469 "/>
<path style=" stroke:none;fill-rule:nonzero;fill:rgb(0%,35.293579%,61.175537%);fill-opacity:1;" d="M 200.496094 42.5625 C 200.496094 41.199219 194.835938 37.859375 187.414063 37.859375 C 171.984375 37.859375 160.78125 51.238281 160.78125 69.667969 C 160.78125 81.453125 167.503906 88.488281 178.757813 88.488281 C 183.996094 88.488281 192.027344 85.914063 192.027344 83.691406 C 192.027344 83.324219 191.902344 83.039063 191.804688 82.8125 C 191.773438 82.738281 191.742188 82.667969 191.714844 82.582031 L 189.34375 76.230469 C 189.167969 75.886719 188.628906 75.5 188.167969 75.5 C 187.6875 75.5 187.132813 75.757813 186.363281 76.113281 C 185.027344 76.730469 183.003906 77.667969 180.167969 77.667969 C 175.738281 77.667969 173.675781 75.421875 173.675781 70.609375 C 173.675781 59.476563 178.167969 48.210938 186.757813 48.210938 C 190.925781 48.210938 192.835938 49.414063 193.863281 50.058594 C 194.332031 50.351563 194.671875 50.5625 195.039063 50.5625 C 195.566406 50.5625 195.964844 50.3125 196.285156 49.773438 L 199.855469 43.953125 C 200.25 43.355469 200.496094 42.917969 200.496094 42.5625 "/>
<path style=" stroke:none;fill-rule:nonzero;fill:rgb(0%,35.293579%,61.175537%);fill-opacity:1;" d="M 222.957031 48.210938 C 226.550781 48.210938 228.226563 50.242188 228.226563 54.609375 C 228.226563 64.097656 224.398438 78.136719 216.179688 78.136719 C 212.585938 78.136719 210.910156 76.105469 210.910156 71.738281 C 210.910156 62.25 214.738281 48.210938 222.957031 48.210938 Z M 225.214844 37.859375 C 209.964844 37.859375 198.015625 52.367188 198.015625 70.890625 C 198.015625 82.402344 203.710938 88.488281 214.484375 88.488281 C 229.421875 88.488281 241.117188 73.980469 241.117188 55.457031 C 241.117188 43.945313 235.617188 37.859375 225.214844 37.859375 "/>
<path style=" stroke:none;fill-rule:nonzero;fill:rgb(0%,35.293579%,61.175537%);fill-opacity:1;" d="M 302.859375 37.859375 C 295.195313 37.859375 290.0625 43.0625 287.390625 46.746094 C 287.054688 40.925781 284.15625 37.859375 278.953125 37.859375 C 271.769531 37.859375 266.597656 43.292969 263.78125 46.578125 C 263.695313 43.890625 263.296875 37.859375 261.449219 37.859375 C 261.015625 37.859375 260.742188 37.988281 260.542969 38.085938 C 260.484375 38.113281 260.425781 38.144531 260.339844 38.171875 L 252.679688 41.140625 C 252.191406 41.328125 251.382813 41.644531 251.382813 42.5625 C 251.382813 43.359375 251.554688 44.074219 251.738281 44.832031 C 251.96875 45.785156 252.226563 46.863281 252.226563 48.398438 C 252.226563 51.351563 251.660156 53.714844 251.109375 56.011719 L 244.710938 84.339844 L 244.699219 84.441406 C 244.699219 84.625 244.675781 84.804688 244.652344 84.96875 C 244.625 85.15625 244.605469 85.328125 244.605469 85.476563 C 244.605469 86.414063 245.175781 86.890625 246.300781 86.890625 L 255.050781 86.890625 C 256.179688 86.890625 256.597656 86.671875 256.828125 85.390625 L 260.875 66.757813 C 261.816406 62.515625 265.445313 48.679688 272.554688 48.679688 C 274.351563 48.679688 275.378906 49.847656 275.378906 51.882813 C 275.378906 53.800781 274.90625 55.683594 274.449219 57.515625 L 268.332031 84.339844 L 268.320313 84.441406 C 268.320313 84.625 268.296875 84.804688 268.273438 84.972656 C 268.246094 85.15625 268.226563 85.328125 268.226563 85.476563 C 268.226563 86.414063 268.796875 86.890625 269.921875 86.890625 L 278.671875 86.890625 C 279.800781 86.890625 280.21875 86.671875 280.449219 85.390625 L 284.496094 66.757813 C 285.703125 61.324219 289.285156 48.679688 296.460938 48.679688 C 298.402344 48.679688 298.8125 50.421875 298.8125 51.882813 C 298.8125 53.90625 298.390625 55.859375 297.976563 57.515625 L 291.765625 84.335938 L 291.753906 84.441406 C 291.753906 84.625 291.730469 84.804688 291.703125 84.96875 C 291.679688 85.15625 291.660156 85.328125 291.660156 85.476563 C 291.660156 86.414063 292.230469 86.890625 293.355469 86.890625 L 302.105469 86.890625 C 303.234375 86.890625 303.648438 86.671875 303.882813 85.394531 L 310.75 55.660156 C 311.382813 53.023438 311.703125 50.515625 311.703125 48.210938 C 311.703125 41.339844 308.730469 37.859375 302.859375 37.859375 "/>
<path style=" stroke:none;fill-rule:nonzero;fill:rgb(0%,35.293579%,61.175537%);fill-opacity:1;" d="M 325.054688 78.609375 C 327.40625 80.019531 329.667969 81.429688 333.808594 81.429688 C 344.160156 81.429688 347.546875 64.207031 347.546875 54.234375 C 347.546875 49.433594 346.324219 46.234375 342.371094 46.234375 C 335.21875 46.234375 330.230469 54.140625 328.253906 63.550781 Z M 327.21875 40.777344 C 327.503906 40.683594 327.785156 40.492188 328.160156 40.492188 C 328.539063 40.492188 329.007813 41.058594 329.574219 42.46875 C 330.042969 43.691406 330.609375 45.667969 330.890625 47.175781 C 333.523438 44.257813 337.570313 39.929688 344.066406 39.929688 C 350.839844 39.929688 354.699219 44.539063 354.699219 53.855469 C 354.699219 69.949219 348.019531 87.734375 334.089844 87.734375 C 328.632813 87.734375 325.808594 85.855469 323.738281 84.628906 L 319.691406 103.359375 C 319.597656 103.921875 319.410156 104.675781 318.75 104.863281 L 314.042969 105.992188 C 313.855469 105.992188 313.574219 106.183594 313.199219 106.183594 C 312.539063 106.183594 312.539063 105.898438 312.539063 105.429688 L 323.171875 55.644531 C 323.550781 54.234375 323.738281 52.070313 323.738281 50.09375 C 323.738281 48.585938 323.738281 46.894531 322.796875 44.824219 C 322.703125 44.445313 322.324219 44.164063 322.324219 43.503906 C 322.324219 42.847656 323.265625 42.5625 323.738281 42.375 L 327.21875 40.777344 "/>
<path style=" stroke:none;fill-rule:nonzero;fill:rgb(0%,35.293579%,61.175537%);fill-opacity:1;" d="M 394.859375 74.089844 C 394.578125 75.597656 394.203125 77.195313 394.203125 78.703125 C 394.203125 80.679688 394.859375 82.464844 395.425781 84.441406 C 395.425781 84.820313 394.953125 85.101563 394.578125 85.195313 L 391.191406 86.605469 C 390.625 86.796875 390.25 87.078125 389.871094 87.078125 C 389.027344 87.078125 387.898438 84.726563 387.898438 82.65625 C 387.898438 81.335938 388.179688 79.925781 388.273438 79.078125 L 388.085938 78.890625 C 384.695313 83.21875 379.804688 87.734375 371.617188 87.734375 C 367.191406 87.734375 363.488281 84.535156 363.488281 77.855469 C 363.488281 76.160156 363.863281 74.277344 364.335938 72.394531 L 369.640625 42.753906 C 369.734375 42.1875 369.921875 41.433594 370.582031 41.246094 L 375.285156 40.117188 C 375.472656 40.117188 375.757813 39.929688 376.132813 39.929688 C 376.886719 39.929688 376.886719 40.210938 376.792969 40.683594 L 370.675781 70.421875 C 370.296875 72.113281 369.640625 74.46875 369.640625 76.160156 C 369.640625 79.453125 371.238281 81.429688 374.4375 81.429688 C 379.050781 81.429688 383.851563 77.855469 385.449219 75.785156 C 388.839844 71.359375 389.589844 67.03125 390.53125 62.703125 L 394.859375 42.753906 C 394.953125 42.1875 395.144531 41.433594 395.800781 41.246094 L 400.507813 40.117188 C 400.695313 40.117188 400.976563 39.929688 401.355469 39.929688 C 402.105469 39.929688 402.011719 40.210938 402.011719 40.683594 L 394.859375 74.089844 "/>
<path style=" stroke:none;fill-rule:nonzero;fill:rgb(0%,35.293579%,61.175537%);fill-opacity:1;" d="M 432.320313 82.464844 C 432.320313 82.75 432.507813 83.21875 432.507813 83.5 C 432.507813 85.382813 425.355469 87.734375 419.238281 87.734375 C 414.253906 87.734375 410.863281 84.535156 410.863281 78.324219 C 410.863281 76.820313 411.429688 74.277344 411.710938 72.773438 L 417.261719 46.703125 L 410.394531 46.703125 C 409.921875 46.703125 409.640625 46.515625 409.640625 46.140625 C 409.640625 45.953125 409.640625 45.953125 409.921875 44.632813 L 410.394531 42.375 C 410.582031 41.527344 410.769531 41.246094 411.617188 41.246094 L 418.488281 41.246094 L 421.214844 28.257813 C 421.402344 27.601563 421.496094 27.414063 422.15625 27.222656 L 427.144531 25.8125 C 427.332031 25.8125 427.613281 25.71875 427.804688 25.71875 C 428.273438 25.71875 428.367188 26 428.367188 26.28125 C 428.367188 26.566406 428.273438 26.941406 428.179688 27.316406 L 425.167969 41.246094 L 437.96875 41.246094 C 438.4375 41.246094 438.71875 41.527344 438.71875 41.8125 C 438.71875 42.09375 438.53125 42.375 438.34375 42.847656 L 436.839844 45.953125 C 436.554688 46.609375 436.367188 46.703125 435.613281 46.703125 L 424.039063 46.703125 L 418.488281 72.773438 C 418.203125 74.183594 418.015625 76.347656 418.015625 77.476563 C 418.015625 80.960938 419.332031 81.902344 422.4375 81.902344 C 426.957031 81.902344 429.875 79.171875 431.191406 79.171875 C 431.566406 79.171875 431.757813 79.359375 431.851563 79.832031 L 432.320313 82.464844 "/>
<path style=" stroke:none;fill-rule:nonzero;fill:rgb(0%,35.293579%,61.175537%);fill-opacity:1;" d="M 458.464844 29.484375 C 455.546875 29.484375 453.195313 27.128906 453.195313 24.210938 C 453.195313 21.390625 455.546875 18.941406 458.464844 18.941406 C 461.285156 18.941406 463.734375 21.390625 463.734375 24.210938 C 463.734375 27.128906 461.285156 29.484375 458.464844 29.484375 Z M 449.523438 84.535156 C 449.335938 85.382813 449.242188 86.417969 448.300781 86.417969 L 443.3125 86.417969 C 442.746094 86.417969 442.371094 86.230469 442.371094 85.949219 C 442.371094 85.570313 442.464844 85.101563 442.558594 84.820313 L 450.652344 46.703125 L 443.21875 46.703125 C 442.558594 46.703125 442.464844 46.421875 442.464844 46.046875 C 442.464844 45.859375 442.464844 45.667969 442.558594 45.292969 L 443.21875 42.28125 C 443.40625 41.621094 443.6875 41.246094 444.347656 41.246094 L 456.863281 41.246094 C 458.183594 41.246094 458.371094 41.339844 458.371094 42 C 458.371094 42.5625 458.085938 43.316406 457.898438 44.351563 L 449.523438 84.535156 "/>
<path style=" stroke:none;fill-rule:nonzero;fill:rgb(0%,35.293579%,61.175537%);fill-opacity:1;" d="M 470.585938 53.574219 C 470.960938 51.597656 471.246094 49.527344 471.246094 48.210938 C 471.246094 46.328125 470.867188 44.445313 470.492188 42.5625 C 470.492188 42.1875 470.960938 41.90625 471.339844 41.8125 L 474.726563 40.398438 C 475.292969 40.210938 475.667969 39.929688 476.042969 39.929688 C 476.796875 39.929688 477.832031 42.753906 477.832031 45.667969 C 477.832031 47.550781 477.550781 49.058594 477.550781 49.90625 L 477.738281 49.90625 C 481.222656 45.011719 486.394531 39.929688 494.773438 39.929688 C 499.664063 39.929688 503.335938 42.46875 503.335938 47.457031 C 503.335938 49.714844 502.867188 51.882813 502.394531 54.046875 L 495.714844 85.476563 C 495.523438 86.136719 495.335938 86.417969 494.585938 86.417969 L 489.691406 86.417969 C 489.21875 86.417969 488.9375 86.230469 488.9375 85.855469 C 488.9375 85.664063 488.9375 85.382813 489.03125 85.195313 L 495.617188 54.046875 C 495.902344 52.820313 496.183594 51.503906 496.183594 50.28125 C 496.183594 47.644531 494.773438 46.234375 491.949219 46.234375 C 481.785156 46.234375 476.234375 58.75 474.914063 64.960938 L 470.585938 85.476563 C 470.398438 86.136719 470.210938 86.417969 469.457031 86.417969 L 464.5625 86.417969 C 464.09375 86.417969 463.8125 86.230469 463.8125 85.855469 C 463.8125 85.664063 463.8125 85.382813 463.902344 85.195313 L 470.585938 53.574219 "/>
<g clip-path="url(#clip2)" clip-rule="nonzero">
<path style=" stroke:none;fill-rule:nonzero;fill:rgb(0%,35.293579%,61.175537%);fill-opacity:1;" d="M 541.359375 49.714844 C 540.515625 48.964844 537.40625 46.234375 532.421875 46.234375 C 528.65625 46.234375 527.621094 47.269531 526.304688 48.492188 C 522.351563 52.164063 518.679688 65.433594 518.679688 72.207031 C 518.679688 76.820313 520.09375 80.113281 523.480469 80.113281 C 531.667969 80.113281 536.9375 70.136719 538.539063 63.078125 Z M 544.089844 68.914063 C 542.679688 76.820313 540.703125 86.699219 539.574219 93.195313 C 537.878906 102.511719 529.691406 106.183594 521.878906 106.183594 C 514.914063 106.183594 506.351563 102.511719 506.351563 101.664063 C 506.351563 101.382813 506.632813 100.816406 506.730469 100.441406 L 508.328125 96.394531 C 508.421875 96.113281 508.800781 95.828125 509.082031 95.828125 C 510.679688 95.828125 515.855469 99.875 522.726563 99.875 C 534.492188 99.875 533.925781 85.289063 536.089844 76.820313 L 535.902344 76.632813 C 533.644531 80.207031 529.316406 86.417969 522.164063 86.417969 C 515.199219 86.417969 511.527344 80.773438 511.527344 72.585938 C 511.527344 60.726563 517.269531 39.929688 533.359375 39.929688 C 538.441406 39.929688 542.394531 42.847656 544.371094 44.351563 C 545.21875 42.753906 547.101563 40.210938 548.417969 40.210938 C 548.890625 40.210938 548.984375 40.304688 549.265625 40.492188 L 551.902344 42.941406 C 552.089844 43.128906 552.277344 43.316406 552.277344 43.597656 C 552.277344 44.257813 551.242188 44.917969 550.582031 45.953125 C 547.570313 50.1875 547.382813 52.917969 546.914063 55.363281 L 544.089844 68.914063 "/>
</g>
</g>
</svg>
