<?xml version="1.0" encoding="utf-8"?><svg version="1.1" id="Layer_1" xmlns="http://www.w3.org/2000/svg" xmlns:xlink="http://www.w3.org/1999/xlink" x="0px" y="0px" viewBox="0 0 122.88 103" style="enable-background:new 0 0 122.88 103" xml:space="preserve"><g><path d="M10.34,12.08c-1.15,0-2.08-0.93-2.08-2.08c0-1.15,0.93-2.08,2.08-2.08h54.94V2.08c0-1.15,0.93-2.08,2.08-2.08 c1.15,0,2.08,0.93,2.08,2.08v5.85h51.14c1.15,0,2.08,0.93,2.08,2.08c0,1.15-0.93,2.08-2.08,2.08h-4.76v59.36h4.99 c1.15,0,2.08,0.93,2.08,2.08c0,1.15-0.93,2.08-2.08,2.08H69.75v9.16c0.09,0.06,0.18,0.13,0.26,0.21l12.64,12.01 c0.83,0.79,0.86,2.1,0.07,2.93c-0.79,0.83-2.1,0.86-2.93,0.07l-10.04-9.55v10.48c0,1.15-0.93,2.08-2.08,2.08 c-1.15,0-2.08-0.93-2.08-2.08V90.06l-10.45,9.94c-0.83,0.79-2.14,0.76-2.93-0.07c-0.79-0.83-0.76-2.14,0.07-2.93l12.64-12.01 c0.2-0.19,0.43-0.33,0.67-0.43V75.6H37.59c-1.15,0-2.08-0.93-2.08-2.08c0-1.15,0.93-2.08,2.08-2.08h74.07V12.08H10.34L10.34,12.08z M0.01,51.83c-0.31-5.77,4.43-7.25,10.85-6.86l8.1,9.03l7.93-8.91l19.64-0.11c7.42,0.85,5.86,8.61,0,8.94H33.68l-3.02,18.17 l-2.28,18.46c-0.6,1.95-1.79,3.22-3.51,3.88L13.68,94.5c-2.25-0.34-3.59-1.65-3.99-3.97L7.94,74.1c-4.58,0.44-6.11-2.8-6.59-7.5 L0.01,51.83L0.01,51.83z M18.47,20.37c5.5,0,9.97,4.46,9.97,9.97c0,5.5-4.46,9.97-9.97,9.97c-5.5,0-9.97-4.46-9.97-9.97 C8.5,24.83,12.96,20.37,18.47,20.37L18.47,20.37z M18.85,49.75l-6.31-6.92l1.86-1.49c2.74,1.14,5.45,1.15,8.14,0l2.55,1.51 L18.85,49.75L18.85,49.75z"/></g></svg>